<svg xmlns="http://www.w3.org/2000/svg" width="83.608" height="10.486" viewBox="0 0 83.608 10.486"><path d="M7.364-9.772H.7V-8.12H5.068L.7-1.512V0H7.364V-1.652h-4.4l4.4-6.608Zm5,3.5A1.723,1.723,0,0,1,14.21-4.606H10.528A1.8,1.8,0,0,1,12.362-6.272Zm3.682,3.836H13.93a1.6,1.6,0,0,1-1.554.938A1.815,1.815,0,0,1,10.514-3.29h5.67a4.581,4.581,0,0,0,.056-.756,3.641,3.641,0,0,0-3.822-3.836,3.727,3.727,0,0,0-3.892,4,3.756,3.756,0,0,0,3.892,4A3.6,3.6,0,0,0,16.044-2.436Zm1.932.028C17.976-.63,18.97,0,20.454,0h1.232V-1.652h-.91c-.616,0-.826-.224-.826-.742V-6.146h1.736v-1.61H19.95V-9.674H17.976v1.918h-.924v1.61h.924Zm5.432,0C23.408-.63,24.4,0,25.886,0h1.232V-1.652h-.91c-.616,0-.826-.224-.826-.742V-6.146h1.736v-1.61H25.382V-9.674H23.408v1.918h-.924v1.61h.924Zm4.62-1.5c0,2.422,1.568,4.032,3.528,4.032a3.059,3.059,0,0,0,2.576-1.26V0h1.974V-7.756H34.132V-6.65A3.067,3.067,0,0,0,31.57-7.882C29.6-7.882,28.028-6.328,28.028-3.906Zm6.1.028A2.088,2.088,0,0,1,32.074-1.6a2.119,2.119,0,0,1-2.044-2.31A2.069,2.069,0,0,1,32.074-6.16,2.088,2.088,0,0,1,34.132-3.878ZM47.5,0h1.96V-9.772H47.5v4.018H43.316V-9.772h-1.96V0h1.96V-4.158H47.5ZM58.884-3.878a3.833,3.833,0,0,0-3.99-4,3.833,3.833,0,0,0-3.99,4,3.8,3.8,0,0,0,3.934,4A3.878,3.878,0,0,0,58.884-3.878Zm-5.992,0a2.019,2.019,0,0,1,1.974-2.3,2.038,2.038,0,0,1,2,2.3,2.064,2.064,0,0,1-2.03,2.3C53.788-1.582,52.892-2.338,52.892-3.878Zm7.742,1.47C60.634-.63,61.628,0,63.112,0h1.232V-1.652h-.91c-.616,0-.826-.224-.826-.742V-6.146h1.736v-1.61H62.608V-9.674H60.634v1.918H59.71v1.61h.924ZM69.09-6.272a1.723,1.723,0,0,1,1.848,1.666H67.256A1.8,1.8,0,0,1,69.09-6.272Zm3.682,3.836H70.658A1.6,1.6,0,0,1,69.1-1.5,1.815,1.815,0,0,1,67.242-3.29h5.67a4.581,4.581,0,0,0,.056-.756,3.641,3.641,0,0,0-3.822-3.836,3.727,3.727,0,0,0-3.892,4,3.756,3.756,0,0,0,3.892,4A3.6,3.6,0,0,0,72.772-2.436ZM74.4,0h1.96V-10.36H74.4Zm9.912-2.212c-.056-2.842-4.354-1.96-4.354-3.374,0-.448.378-.742,1.106-.742a1.155,1.155,0,0,1,1.3,1.008h1.876c-.112-1.54-1.246-2.562-3.122-2.562-1.918,0-3.066,1.036-3.066,2.324,0,2.842,4.382,1.96,4.382,3.346,0,.448-.42.8-1.19.8a1.287,1.287,0,0,1-1.4-1.036H77.868C77.952-1.008,79.31.126,81.256.126,83.146.126,84.308-.882,84.308-2.212Z" transform="translate(-0.7 10.36)" fill="#fff"/></svg>